<?xml version="1.0" encoding="utf-8"?>
<!-- Generator: Adobe Illustrator 22.1.0, SVG Export Plug-In . SVG Version: 6.00 Build 0)  -->
<svg version="1.1" id="Layer_1" xmlns="http://www.w3.org/2000/svg" xmlns:xlink="http://www.w3.org/1999/xlink" x="0px" y="0px"
	 viewBox="0 0 98 26.7" style="enable-background:new 0 0 98 26.7;" xml:space="preserve">
<style type="text/css">
	.st0{display:none;}
	.st1{display:inline;}
	.st2{display:inline;fill:#FFFFFF;}
	.st3{enable-background:new    ;}
	.st4{fill:#808080;}
	.st5{fill:#FFCD00;}
	.st6{fill:#FCC21B;}
	.st7{fill:#707070;}
</style>
<g class="st0">
	<path class="st1" d="M61,58h1v3.8h-0.6v-3.1L60,61.5h-0.3l-1.4-2.8v3.1h-0.6V58h1l1.2,2.5L61,58z M64.6,59.1
		c0.2,0.2,0.3,0.4,0.3,0.8v1.9h-0.5v-0.4v0c-0.2,0.3-0.6,0.4-1,0.4c-0.3,0-0.5-0.1-0.7-0.3s-0.3-0.4-0.3-0.7s0.1-0.5,0.3-0.6
		c0.2-0.1,0.5-0.2,0.9-0.2h0.8v0c0-0.4-0.2-0.6-0.7-0.6c-0.3,0-0.6,0.1-0.8,0.3l-0.2-0.3c0.3-0.3,0.7-0.4,1.2-0.4
		C64.1,58.9,64.4,59,64.6,59.1z M64.4,60.5h-0.7c-0.5,0-0.7,0.2-0.7,0.5c0,0.2,0.1,0.3,0.2,0.4c0.1,0.1,0.3,0.1,0.5,0.1
		s0.4-0.1,0.5-0.2c0.2-0.1,0.2-0.3,0.2-0.5V60.5L64.4,60.5z M68.1,58.9h-0.7l-1.2,1.3v-2.5h-0.6v4h0.6V61l0.5-0.5l0,0l0.9,1.3h0.7
		L67.2,60L68.1,58.9z M71.3,60.2v0.4h-2.3l0,0c0,0.2,0.1,0.4,0.3,0.5s0.4,0.2,0.6,0.2c0.4,0,0.6-0.1,0.8-0.3l0.3,0.3
		c-0.3,0.3-0.7,0.5-1.2,0.5c-0.4,0-0.8-0.1-1-0.4c-0.3-0.3-0.4-0.6-0.4-1.1s0.1-0.8,0.4-1.1s0.6-0.4,1-0.4c0.4,0,0.7,0.1,1,0.4
		S71.3,59.8,71.3,60.2z M70.6,60.1c0-0.3-0.1-0.5-0.2-0.6c-0.2-0.1-0.4-0.2-0.6-0.2s-0.4,0.1-0.6,0.2c-0.2,0.1-0.3,0.3-0.3,0.6l0,0
		H70.6L70.6,60.1L70.6,60.1z M74.1,61.1l-0.9-2.2h-0.6c1.2,2.9,1.2,3,1.2,3c0,0.1,0,0.2-0.1,0.3c-0.1,0.1-0.2,0.2-0.4,0.2
		c-0.1,0-0.3-0.1-0.4-0.2l-0.3,0.5c0.2,0.2,0.4,0.3,0.7,0.3c0.2,0,0.4-0.1,0.5-0.2c0.2-0.1,0.3-0.3,0.4-0.4l1.4-3.5h-0.6L74.1,61.1z
		 M78.1,59.3c0.3,0.3,0.4,0.6,0.4,1.1s-0.1,0.8-0.4,1.1s-0.7,0.4-1.1,0.4c-0.4,0-0.8-0.1-1.1-0.4c-0.3-0.3-0.4-0.6-0.4-1.1
		s0.1-0.8,0.4-1.1s0.7-0.4,1.1-0.4C77.4,58.9,77.9,59,78.1,59.3z M78.1,60.4c0-0.3-0.1-0.5-0.3-0.7s-0.4-0.3-0.7-0.3
		c-0.3,0-0.5,0.1-0.7,0.3s-0.3,0.4-0.3,0.7s0.1,0.5,0.3,0.7c0.2,0.2,0.4,0.3,0.7,0.3s0.5-0.1,0.7-0.3S78.1,60.7,78.1,60.4z
		 M81.1,60.5c0,0.3-0.1,0.5-0.2,0.6c-0.2,0.1-0.4,0.2-0.6,0.2c-0.5,0-0.7-0.3-0.7-0.8v-1.6h-0.6v1.8c0,0.4,0.1,0.7,0.3,0.9
		s0.5,0.3,0.8,0.3c0.2,0,0.4-0.1,0.6-0.2c0.2-0.1,0.3-0.2,0.4-0.4l0.1-0.1v0.6h0.6v-2.9h-0.6v1.6H81.1z M83.4,59.1
		c-0.2,0.1-0.3,0.3-0.4,0.4l-0.1,0.1v-0.7h-0.5v2.9h0.6v-1.2c0-0.3,0.1-0.6,0.2-0.8c0.2-0.2,0.4-0.3,0.7-0.3l0,0v-0.6
		C83.8,58.9,83.6,58.9,83.4,59.1z M89.1,58.9c-0.4,0-0.8,0.2-1.1,0.6l0,0l0,0c-0.2-0.4-0.5-0.6-0.9-0.6c-0.2,0-0.4,0.1-0.6,0.1
		c-0.2,0.1-0.3,0.2-0.4,0.4l-0.1,0.1v-0.6h-0.6v2.9h0.6v-1.6c0-0.3,0.1-0.5,0.2-0.6c0.2-0.1,0.4-0.2,0.6-0.2s0.4,0.1,0.5,0.2
		c0.1,0.1,0.2,0.3,0.2,0.6v1.6h0.6v-1.6c0-0.3,0.1-0.5,0.3-0.6c0.2-0.1,0.4-0.2,0.6-0.2c0.5,0,0.7,0.3,0.7,0.8v1.6h0.6V60
		c0-0.4-0.1-0.7-0.3-0.9C89.8,59,89.6,58.9,89.1,58.9z M92.9,59.1c0.2,0.2,0.3,0.4,0.3,0.8v1.9h-0.5v-0.4l-0.1,0.1
		c-0.2,0.3-0.6,0.4-1,0.4c-0.3,0-0.5-0.1-0.7-0.3s-0.3-0.4-0.3-0.7s0.1-0.5,0.3-0.6c0.2-0.1,0.5-0.2,0.9-0.2h0.8V60
		c0-0.4-0.2-0.6-0.7-0.6c-0.3,0-0.6,0.1-0.8,0.3L91,59.4c0.3-0.3,0.7-0.4,1.2-0.4C92.4,58.9,92.8,59,92.9,59.1z M92.6,60.5h-0.7
		c-0.5,0-0.7,0.2-0.7,0.5c0,0.2,0.1,0.3,0.2,0.4c0.1,0.1,0.3,0.1,0.5,0.1s0.4-0.1,0.5-0.2c0.2-0.1,0.2-0.3,0.2-0.5
		C92.6,60.7,92.6,60.5,92.6,60.5z M94.9,59.1c-0.2,0.1-0.3,0.3-0.4,0.4v0.1v-0.7h-0.6v2.9h0.6v-1.2c0-0.3,0.1-0.6,0.2-0.8
		c0.2-0.2,0.4-0.3,0.7-0.3l0,0v-0.6C95.3,58.9,95.1,58.9,94.9,59.1z M98.4,58.9h-0.7l-1.2,1.3v-2.5h-0.6v4h0.6V61l0.5-0.5l0,0
		l0.9,1.3h0.7L97.4,60L98.4,58.9z"/>
	<path class="st1" d="M19.4,58.6c0.1-0.1,0.3-0.2,0.4-0.4c1.5-1.5,2.3-3.4,2.3-5.6c0-2.2-0.8-4.1-2.3-5.6s-3.5-2.3-5.8-2.3
		S9.8,45.5,8.1,47c-1.5,1.5-2.3,3.4-2.3,5.6s0.8,4.1,2.3,5.6s3.5,2.3,5.8,2.3c1.1,0,2.1-0.2,3.1-0.5c2.2,1.8,5.7,1.9,5.7,1.9
		C21.1,61.2,19.9,59.5,19.4,58.6z M18.7,56.5H9.4c-0.4,0-0.7-0.3-0.7-0.7s0.3-0.7,0.7-0.7h9.3c0.4,0,0.7,0.3,0.7,0.7
		C19.3,56.2,19,56.5,18.7,56.5z M18.7,53.3H9.4c-0.4,0-0.7-0.3-0.7-0.7s0.3-0.7,0.7-0.7h9.3c0.4,0,0.7,0.3,0.7,0.7
		C19.3,53,19,53.3,18.7,53.3z M18.7,50H9.4c-0.4,0-0.7-0.3-0.7-0.7s0.3-0.7,0.7-0.7h9.3c0.4,0,0.7,0.3,0.7,0.7
		C19.3,49.7,19,50,18.7,50z M12,40.1c0-1.7,0.9-3.1,2-3.1s2,1.4,2,3.1s-0.9,3.1-2,3.1S12,41.9,12,40.1z M5.6,42.2
		c-1-1.7-0.9-3.5,0.2-4.1c1.1-0.7,2.7,0.2,3.7,1.9s0.9,3.5-0.2,4.1C8.2,44.7,6.6,43.8,5.6,42.2z M5.5,47.9C4.9,49,3,49,1.4,48.1
		c-1.7-1-2.5-2.6-1.9-3.7c0.6-1.1,2.5-1.1,4.1-0.2C5.3,45.2,6.1,46.9,5.5,47.9z M4.8,52.7c0,1.1-1.4,2-3.1,2s-3.1-0.9-3.1-2
		s1.4-2,3.1-2S4.8,51.6,4.8,52.7z M26.1,53h2c1.6,0,2.8-0.3,3.6-0.9c0.8-0.6,1.2-1.6,1.2-2.9c0-1.3-0.4-2.3-1.2-3
		c-0.8-0.6-2-1-3.7-1h-3.8v11h1.9C26.1,56.2,26.1,53,26.1,53z M26.1,46.9H28c1,0,1.8,0.2,2.2,0.5c0.5,0.3,0.7,0.9,0.7,1.6
		s-0.2,1.3-0.6,1.7s-1.1,0.6-2.1,0.6H26C26.1,51.3,26.1,46.9,26.1,46.9z M39,55.9c0.5-0.3,0.9-0.6,1.3-1.1v1.4H42v-8.4h-1.8v1.5
		c-0.7-1.1-1.6-1.6-2.7-1.6s-2.1,0.4-2.9,1.2c-0.8,0.8-1.2,1.8-1.2,3.1s0.4,2.4,1.2,3.2s1.7,1.2,2.8,1.2
		C37.9,56.3,38.4,56.2,39,55.9z M35.2,52.1c0-0.8,0.3-1.5,0.8-2s1.1-0.8,1.8-0.8s1.3,0.3,1.8,0.8s0.7,1.2,0.7,2s-0.2,1.5-0.7,2
		s-1.1,0.8-1.8,0.8S36.5,54.5,36,54C35.4,53.5,35.2,52.9,35.2,52.1z M56.5,47.8l-2.9,8.4h-2l-2-5.7l-2,5.7h-2l-2.9-8.4h1.8l2.1,6.3
		l2.1-6.3h1.8l2.1,6.3l2.1-6.3C54.7,47.8,56.5,47.8,56.5,47.8z M66.1,49.1c0-1.3-0.4-2.3-1.2-3c-0.8-0.6-2-1-3.7-1h-3.8v11h2V53h2
		c1.6,0,2.8-0.3,3.6-0.9C65.8,51.4,66.1,50.4,66.1,49.1z M63.6,50.7c-0.4,0.4-1.1,0.6-2.1,0.6h-2.1v-4.4h1.9c1,0,1.8,0.2,2.2,0.5
		c0.5,0.3,0.7,0.9,0.7,1.6S64.1,50.3,63.6,50.7z M71.8,49.5c-0.9,0-1.5,0.3-2,0.9c-0.4,0.6-0.7,1.3-0.7,2.3v3.6h-1.8v-8.4h1.8v1.7
		c0.3-0.5,0.7-1,1.2-1.3s1-0.5,1.6-0.5L71.8,49.5L71.8,49.5z M72.9,46.1c-0.2-0.2-0.3-0.5-0.3-0.8s0.1-0.6,0.3-0.8
		c0.2-0.2,0.5-0.3,0.8-0.3s0.6,0.1,0.8,0.3c0.2,0.2,0.3,0.5,0.3,0.8s-0.1,0.6-0.3,0.8s-0.5,0.3-0.8,0.3S73.1,46.4,72.9,46.1z
		 M72.8,47.8h1.8v8.4h-1.8V47.8z M83.1,48.6c0.6,0.6,0.9,1.4,0.9,2.5v5.1h-1.8v-4.6c0-1.5-0.6-2.3-1.9-2.3c-0.6,0-1.1,0.2-1.6,0.6
		c-0.5,0.4-0.7,1-0.7,1.8v4.5h-1.8v-8.4h1.8v1.5c0.3-0.5,0.7-0.9,1.2-1.2s1-0.4,1.6-0.4C81.9,47.7,82.6,48,83.1,48.6z M90.1,54.3
		l0.7,1.2c-0.6,0.6-1.3,0.8-2.1,0.8s-1.4-0.3-1.9-0.8s-0.8-1.2-0.8-2.1v-4.2h-1.1v-1.4h1.1v-2.6h1.8v2.6h2.2v1.4h-2.2v4.3
		c0,0.4,0.1,0.7,0.3,1c0.2,0.2,0.5,0.4,0.9,0.4C89.4,54.8,89.8,54.6,90.1,54.3z M98.4,53.7c0,0.8-0.3,1.4-0.9,1.9
		c-0.6,0.5-1.3,0.7-2.2,0.7c-0.6,0-1.2-0.1-1.9-0.3c-0.7-0.2-1.2-0.5-1.7-0.9l0.9-1.4c1,0.7,1.9,1.1,2.8,1.1c0.4,0,0.7-0.1,0.9-0.3
		s0.3-0.4,0.3-0.7c0-0.4-0.6-0.8-1.7-1.1c-0.1,0-0.1-0.1-0.2-0.1c-1.7-0.5-2.6-1.3-2.6-2.4c0-0.8,0.3-1.4,0.9-1.9
		c0.6-0.5,1.4-0.7,2.4-0.7s1.9,0.3,2.7,0.9l-0.7,1.3c-0.7-0.5-1.4-0.7-2.2-0.7c-0.4,0-0.8,0.1-1,0.2c-0.3,0.2-0.4,0.4-0.4,0.7
		s0.1,0.5,0.4,0.6c0.2,0.1,0.5,0.2,0.8,0.3s0.6,0.2,0.9,0.3s0.5,0.2,0.8,0.3c0.2,0.1,0.5,0.3,0.8,0.4C98.1,52.3,98.4,52.9,98.4,53.7
		z M12,40.1c0-1.7,0.9-3.1,2-3.1s2,1.4,2,3.1s-0.9,3.1-2,3.1S12,41.9,12,40.1z"/>
</g>
<g class="st0">
	<path class="st2" d="M61,58h1v3.8h-0.6v-3.1L60,61.5h-0.3l-1.4-2.8v3.1h-0.6V58h1l1.2,2.5L61,58z M64.6,59.1
		c0.2,0.2,0.3,0.4,0.3,0.8v1.9h-0.5v-0.4v0c-0.2,0.3-0.6,0.4-1,0.4c-0.3,0-0.5-0.1-0.7-0.3s-0.3-0.4-0.3-0.7s0.1-0.5,0.3-0.6
		c0.2-0.1,0.5-0.2,0.9-0.2h0.8v0c0-0.4-0.2-0.6-0.7-0.6c-0.3,0-0.6,0.1-0.8,0.3l-0.2-0.3c0.3-0.3,0.7-0.4,1.2-0.4
		C64.1,58.9,64.4,59,64.6,59.1z M64.4,60.5h-0.7c-0.5,0-0.7,0.2-0.7,0.5c0,0.2,0.1,0.3,0.2,0.4c0.1,0.1,0.3,0.1,0.5,0.1
		s0.4-0.1,0.5-0.2c0.2-0.1,0.2-0.3,0.2-0.5V60.5L64.4,60.5z M68.1,58.9h-0.7l-1.2,1.3v-2.5h-0.6v4h0.6V61l0.5-0.5l0,0l0.9,1.3h0.7
		L67.2,60L68.1,58.9z M71.3,60.2v0.4h-2.3l0,0c0,0.2,0.1,0.4,0.3,0.5s0.4,0.2,0.6,0.2c0.4,0,0.6-0.1,0.8-0.3l0.3,0.3
		c-0.3,0.3-0.7,0.5-1.2,0.5c-0.4,0-0.8-0.1-1-0.4c-0.3-0.3-0.4-0.6-0.4-1.1s0.1-0.8,0.4-1.1s0.6-0.4,1-0.4c0.4,0,0.7,0.1,1,0.4
		S71.3,59.8,71.3,60.2z M70.6,60.1c0-0.3-0.1-0.5-0.2-0.6c-0.2-0.1-0.4-0.2-0.6-0.2s-0.4,0.1-0.6,0.2c-0.2,0.1-0.3,0.3-0.3,0.6l0,0
		H70.6L70.6,60.1L70.6,60.1z M74.1,61.1l-0.9-2.2h-0.6c1.2,2.9,1.2,3,1.2,3c0,0.1,0,0.2-0.1,0.3c-0.1,0.1-0.2,0.2-0.4,0.2
		c-0.1,0-0.3-0.1-0.4-0.2l-0.3,0.5c0.2,0.2,0.4,0.3,0.7,0.3c0.2,0,0.4-0.1,0.5-0.2c0.2-0.1,0.3-0.3,0.4-0.4l1.4-3.5h-0.6L74.1,61.1z
		 M78.1,59.3c0.3,0.3,0.4,0.6,0.4,1.1s-0.1,0.8-0.4,1.1s-0.7,0.4-1.1,0.4c-0.4,0-0.8-0.1-1.1-0.4c-0.3-0.3-0.4-0.6-0.4-1.1
		s0.1-0.8,0.4-1.1s0.7-0.4,1.1-0.4C77.4,58.9,77.9,59,78.1,59.3z M78.1,60.4c0-0.3-0.1-0.5-0.3-0.7s-0.4-0.3-0.7-0.3
		c-0.3,0-0.5,0.1-0.7,0.3s-0.3,0.4-0.3,0.7s0.1,0.5,0.3,0.7c0.2,0.2,0.4,0.3,0.7,0.3s0.5-0.1,0.7-0.3S78.1,60.7,78.1,60.4z
		 M81.1,60.5c0,0.3-0.1,0.5-0.2,0.6c-0.2,0.1-0.4,0.2-0.6,0.2c-0.5,0-0.7-0.3-0.7-0.8v-1.6h-0.6v1.8c0,0.4,0.1,0.7,0.3,0.9
		s0.5,0.3,0.8,0.3c0.2,0,0.4-0.1,0.6-0.2c0.2-0.1,0.3-0.2,0.4-0.4l0.1-0.1v0.6h0.6v-2.9h-0.6v1.6H81.1z M83.4,59.1
		c-0.2,0.1-0.3,0.3-0.4,0.4l-0.1,0.1v-0.7h-0.5v2.9h0.6v-1.2c0-0.3,0.1-0.6,0.2-0.8c0.2-0.2,0.4-0.3,0.7-0.3l0,0v-0.6
		C83.8,58.9,83.6,58.9,83.4,59.1z M89.1,58.9c-0.4,0-0.8,0.2-1.1,0.6l0,0l0,0c-0.2-0.4-0.5-0.6-0.9-0.6c-0.2,0-0.4,0.1-0.6,0.1
		c-0.2,0.1-0.3,0.2-0.4,0.4l-0.1,0.1v-0.6h-0.6v2.9h0.6v-1.6c0-0.3,0.1-0.5,0.2-0.6c0.2-0.1,0.4-0.2,0.6-0.2s0.4,0.1,0.5,0.2
		c0.1,0.1,0.2,0.3,0.2,0.6v1.6h0.6v-1.6c0-0.3,0.1-0.5,0.3-0.6c0.2-0.1,0.4-0.2,0.6-0.2c0.5,0,0.7,0.3,0.7,0.8v1.6h0.6V60
		c0-0.4-0.1-0.7-0.3-0.9C89.8,59,89.6,58.9,89.1,58.9z M92.9,59.1c0.2,0.2,0.3,0.4,0.3,0.8v1.9h-0.5v-0.4l-0.1,0.1
		c-0.2,0.3-0.6,0.4-1,0.4c-0.3,0-0.5-0.1-0.7-0.3s-0.3-0.4-0.3-0.7s0.1-0.5,0.3-0.6c0.2-0.1,0.5-0.2,0.9-0.2h0.8V60
		c0-0.4-0.2-0.6-0.7-0.6c-0.3,0-0.6,0.1-0.8,0.3L91,59.4c0.3-0.3,0.7-0.4,1.2-0.4C92.4,58.9,92.8,59,92.9,59.1z M92.6,60.5h-0.7
		c-0.5,0-0.7,0.2-0.7,0.5c0,0.2,0.1,0.3,0.2,0.4c0.1,0.1,0.3,0.1,0.5,0.1s0.4-0.1,0.5-0.2c0.2-0.1,0.2-0.3,0.2-0.5
		C92.6,60.7,92.6,60.5,92.6,60.5z M94.9,59.1c-0.2,0.1-0.3,0.3-0.4,0.4v0.1v-0.7h-0.6v2.9h0.6v-1.2c0-0.3,0.1-0.6,0.2-0.8
		c0.2-0.2,0.4-0.3,0.7-0.3l0,0v-0.6C95.3,58.9,95.1,58.9,94.9,59.1z M98.4,58.9h-0.7l-1.2,1.3v-2.5h-0.6v4h0.6V61l0.5-0.5l0,0
		l0.9,1.3h0.7L97.4,60L98.4,58.9z"/>
	<path class="st2" d="M19.4,58.6c0.1-0.1,0.3-0.2,0.4-0.4c1.5-1.5,2.3-3.4,2.3-5.6c0-2.2-0.8-4.1-2.3-5.6s-3.5-2.3-5.8-2.3
		S9.8,45.5,8.1,47c-1.5,1.5-2.3,3.4-2.3,5.6s0.8,4.1,2.3,5.6s3.5,2.3,5.8,2.3c1.1,0,2.1-0.2,3.1-0.5c2.2,1.8,5.7,1.9,5.7,1.9
		C21.1,61.2,19.9,59.5,19.4,58.6z M18.7,56.5H9.4c-0.4,0-0.7-0.3-0.7-0.7s0.3-0.7,0.7-0.7h9.3c0.4,0,0.7,0.3,0.7,0.7
		C19.3,56.2,19,56.5,18.7,56.5z M18.7,53.3H9.4c-0.4,0-0.7-0.3-0.7-0.7s0.3-0.7,0.7-0.7h9.3c0.4,0,0.7,0.3,0.7,0.7
		C19.3,53,19,53.3,18.7,53.3z M18.7,50H9.4c-0.4,0-0.7-0.3-0.7-0.7s0.3-0.7,0.7-0.7h9.3c0.4,0,0.7,0.3,0.7,0.7
		C19.3,49.7,19,50,18.7,50z M12,40.1c0-1.7,0.9-3.1,2-3.1s2,1.4,2,3.1s-0.9,3.1-2,3.1S12,41.9,12,40.1z M5.6,42.2
		c-1-1.7-0.9-3.5,0.2-4.1c1.1-0.7,2.7,0.2,3.7,1.9s0.9,3.5-0.2,4.1C8.2,44.7,6.6,43.8,5.6,42.2z M5.5,47.9C4.9,49,3,49,1.4,48.1
		c-1.7-1-2.5-2.6-1.9-3.7c0.6-1.1,2.5-1.1,4.1-0.2C5.3,45.2,6.1,46.9,5.5,47.9z M4.8,52.7c0,1.1-1.4,2-3.1,2s-3.1-0.9-3.1-2
		s1.4-2,3.1-2S4.8,51.6,4.8,52.7z M26.1,53h2c1.6,0,2.8-0.3,3.6-0.9c0.8-0.6,1.2-1.6,1.2-2.9c0-1.3-0.4-2.3-1.2-3
		c-0.8-0.6-2-1-3.7-1h-3.8v11h1.9C26.1,56.2,26.1,53,26.1,53z M26.1,46.9H28c1,0,1.8,0.2,2.2,0.5c0.5,0.3,0.7,0.9,0.7,1.6
		s-0.2,1.3-0.6,1.7s-1.1,0.6-2.1,0.6H26C26.1,51.3,26.1,46.9,26.1,46.9z M39,55.9c0.5-0.3,0.9-0.6,1.3-1.1v1.4H42v-8.4h-1.8v1.5
		c-0.7-1.1-1.6-1.6-2.7-1.6s-2.1,0.4-2.9,1.2c-0.8,0.8-1.2,1.8-1.2,3.1s0.4,2.4,1.2,3.2s1.7,1.2,2.8,1.2
		C37.9,56.3,38.4,56.2,39,55.9z M35.2,52.1c0-0.8,0.3-1.5,0.8-2s1.1-0.8,1.8-0.8s1.3,0.3,1.8,0.8s0.7,1.2,0.7,2s-0.2,1.5-0.7,2
		s-1.1,0.8-1.8,0.8S36.5,54.5,36,54C35.4,53.5,35.2,52.9,35.2,52.1z M56.5,47.8l-2.9,8.4h-2l-2-5.7l-2,5.7h-2l-2.9-8.4h1.8l2.1,6.3
		l2.1-6.3h1.8l2.1,6.3l2.1-6.3C54.7,47.8,56.5,47.8,56.5,47.8z M66.1,49.1c0-1.3-0.4-2.3-1.2-3c-0.8-0.6-2-1-3.7-1h-3.8v11h2V53h2
		c1.6,0,2.8-0.3,3.6-0.9C65.8,51.4,66.1,50.4,66.1,49.1z M63.6,50.7c-0.4,0.4-1.1,0.6-2.1,0.6h-2.1v-4.4h1.9c1,0,1.8,0.2,2.2,0.5
		c0.5,0.3,0.7,0.9,0.7,1.6S64.1,50.3,63.6,50.7z M71.8,49.5c-0.9,0-1.5,0.3-2,0.9c-0.4,0.6-0.7,1.3-0.7,2.3v3.6h-1.8v-8.4h1.8v1.7
		c0.3-0.5,0.7-1,1.2-1.3s1-0.5,1.6-0.5L71.8,49.5L71.8,49.5z M72.9,46.1c-0.2-0.2-0.3-0.5-0.3-0.8s0.1-0.6,0.3-0.8
		c0.2-0.2,0.5-0.3,0.8-0.3s0.6,0.1,0.8,0.3c0.2,0.2,0.3,0.5,0.3,0.8s-0.1,0.6-0.3,0.8s-0.5,0.3-0.8,0.3S73.1,46.4,72.9,46.1z
		 M72.8,47.8h1.8v8.4h-1.8V47.8z M83.1,48.6c0.6,0.6,0.9,1.4,0.9,2.5v5.1h-1.8v-4.6c0-1.5-0.6-2.3-1.9-2.3c-0.6,0-1.1,0.2-1.6,0.6
		c-0.5,0.4-0.7,1-0.7,1.8v4.5h-1.8v-8.4h1.8v1.5c0.3-0.5,0.7-0.9,1.2-1.2s1-0.4,1.6-0.4C81.9,47.7,82.6,48,83.1,48.6z M90.1,54.3
		l0.7,1.2c-0.6,0.6-1.3,0.8-2.1,0.8s-1.4-0.3-1.9-0.8s-0.8-1.2-0.8-2.1v-4.2h-1.1v-1.4h1.1v-2.6h1.8v2.6h2.2v1.4h-2.2v4.3
		c0,0.4,0.1,0.7,0.3,1c0.2,0.2,0.5,0.4,0.9,0.4C89.4,54.8,89.8,54.6,90.1,54.3z M98.4,53.7c0,0.8-0.3,1.4-0.9,1.9
		c-0.6,0.5-1.3,0.7-2.2,0.7c-0.6,0-1.2-0.1-1.9-0.3c-0.7-0.2-1.2-0.5-1.7-0.9l0.9-1.4c1,0.7,1.9,1.1,2.8,1.1c0.4,0,0.7-0.1,0.9-0.3
		s0.3-0.4,0.3-0.7c0-0.4-0.6-0.8-1.7-1.1c-0.1,0-0.1-0.1-0.2-0.1c-1.7-0.5-2.6-1.3-2.6-2.4c0-0.8,0.3-1.4,0.9-1.9
		c0.6-0.5,1.4-0.7,2.4-0.7s1.9,0.3,2.7,0.9l-0.7,1.3c-0.7-0.5-1.4-0.7-2.2-0.7c-0.4,0-0.8,0.1-1,0.2c-0.3,0.2-0.4,0.4-0.4,0.7
		s0.1,0.5,0.4,0.6c0.2,0.1,0.5,0.2,0.8,0.3s0.6,0.2,0.9,0.3s0.5,0.2,0.8,0.3c0.2,0.1,0.5,0.3,0.8,0.4C98.1,52.3,98.4,52.9,98.4,53.7
		z M12,40.1c0-1.7,0.9-3.1,2-3.1s2,1.4,2,3.1s-0.9,3.1-2,3.1S12,41.9,12,40.1z"/>
</g>
<g class="st3">
	<path class="st4" d="M21.4,9.4h1.5v10.5h-1.5V9.4z"/>
	<path class="st4" d="M27.1,19.4c-0.6-0.4-1.1-0.8-1.5-1.4c-0.4-0.6-0.5-1.3-0.5-2.1c0-0.8,0.2-1.5,0.5-2.1c0.4-0.6,0.8-1.1,1.5-1.4
		c0.6-0.3,1.3-0.5,2.1-0.5s1.5,0.2,2.1,0.5c0.6,0.3,1.1,0.8,1.5,1.4c0.4,0.6,0.5,1.3,0.5,2.1c0,0.8-0.2,1.5-0.5,2.1
		c-0.4,0.6-0.8,1.1-1.5,1.4c-0.6,0.3-1.3,0.5-2.1,0.5S27.8,19.8,27.1,19.4z M30.6,18.3c0.4-0.2,0.7-0.6,1-1c0.2-0.4,0.3-0.9,0.3-1.5
		c0-0.5-0.1-1-0.3-1.5c-0.2-0.4-0.5-0.8-1-1c-0.4-0.2-0.9-0.3-1.4-0.3c-0.5,0-1,0.1-1.4,0.3c-0.4,0.2-0.7,0.6-1,1
		c-0.2,0.4-0.4,0.9-0.4,1.5c0,0.5,0.1,1,0.4,1.5c0.2,0.4,0.6,0.8,1,1c0.4,0.2,0.9,0.4,1.4,0.4C29.8,18.7,30.2,18.6,30.6,18.3z"/>
	<path class="st4" d="M47.2,11.9l-3,8h-1.4l-2.3-6l-2.3,6h-1.4l-3-8h1.4l2.3,6.3l2.4-6.3h1.2l2.4,6.4l2.4-6.4H47.2z"/>
	<path class="st4" d="M53.8,12.6c0.6,0.5,0.9,1.3,0.9,2.4v4.8h-1.4v-1c-0.2,0.4-0.6,0.7-1,0.8c-0.4,0.2-1,0.3-1.6,0.3
		c-0.9,0-1.6-0.2-2.1-0.6c-0.5-0.4-0.8-1-0.8-1.7s0.3-1.3,0.8-1.7c0.5-0.4,1.3-0.6,2.4-0.6h2.3V15c0-0.6-0.2-1.1-0.5-1.4
		c-0.4-0.3-0.9-0.5-1.6-0.5c-0.5,0-0.9,0.1-1.4,0.2c-0.4,0.2-0.8,0.4-1.1,0.6L48,12.9c0.4-0.3,0.9-0.6,1.5-0.8
		c0.6-0.2,1.2-0.3,1.8-0.3C52.4,11.8,53.2,12.1,53.8,12.6z M52.4,18.5c0.4-0.2,0.7-0.6,0.9-1v-1.1H51c-1.2,0-1.8,0.4-1.8,1.2
		c0,0.4,0.2,0.7,0.5,0.9c0.3,0.2,0.7,0.3,1.3,0.3C51.5,18.8,52,18.7,52.4,18.5z"/>
</g>
<g class="st3">
	<path class="st5" d="M58,9.4h1.5v10.5H58V9.4z"/>
	<path class="st5" d="M70,8.7v11.1h-1.4v-1.3c-0.3,0.4-0.7,0.8-1.2,1c-0.5,0.2-1,0.3-1.6,0.3c-0.8,0-1.5-0.2-2.1-0.5
		s-1.1-0.8-1.4-1.4c-0.3-0.6-0.5-1.3-0.5-2.1c0-0.8,0.2-1.5,0.5-2.1c0.3-0.6,0.8-1.1,1.4-1.4s1.3-0.5,2.1-0.5c0.6,0,1.1,0.1,1.6,0.3
		c0.5,0.2,0.9,0.5,1.2,1V8.7H70z M67.2,18.3c0.4-0.2,0.7-0.6,1-1c0.2-0.4,0.3-0.9,0.3-1.5c0-0.5-0.1-1-0.3-1.5c-0.2-0.4-0.6-0.8-1-1
		s-0.9-0.3-1.4-0.3c-0.5,0-1,0.1-1.4,0.3c-0.4,0.2-0.7,0.6-1,1c-0.2,0.4-0.4,0.9-0.4,1.5c0,0.5,0.1,1,0.4,1.5c0.2,0.4,0.6,0.8,1,1
		c0.4,0.2,0.9,0.4,1.4,0.4C66.4,18.7,66.8,18.6,67.2,18.3z"/>
	<path class="st5" d="M79.8,16.4h-6.5c0.1,0.7,0.4,1.3,0.9,1.7s1.2,0.6,2,0.6c0.9,0,1.7-0.3,2.3-1l0.8,0.9c-0.4,0.4-0.8,0.7-1.3,1
		c-0.5,0.2-1.1,0.3-1.8,0.3c-0.8,0-1.6-0.2-2.2-0.5c-0.7-0.3-1.2-0.8-1.5-1.4c-0.4-0.6-0.5-1.3-0.5-2.1c0-0.8,0.2-1.5,0.5-2.1
		c0.3-0.6,0.8-1.1,1.4-1.4c0.6-0.3,1.3-0.5,2-0.5c0.8,0,1.4,0.2,2,0.5c0.6,0.3,1.1,0.8,1.4,1.4c0.3,0.6,0.5,1.3,0.5,2.1
		C79.9,16,79.9,16.2,79.8,16.4z M74.2,13.7c-0.5,0.4-0.7,1-0.8,1.6h5.1c-0.1-0.7-0.4-1.2-0.8-1.6c-0.5-0.4-1-0.6-1.7-0.6
		C75.3,13.1,74.7,13.3,74.2,13.7z"/>
	<path class="st5" d="M87.1,12.6c0.6,0.5,0.9,1.3,0.9,2.4v4.8h-1.4v-1c-0.2,0.4-0.6,0.7-1,0.8c-0.4,0.2-1,0.3-1.6,0.3
		c-0.9,0-1.6-0.2-2.1-0.6c-0.5-0.4-0.8-1-0.8-1.7s0.3-1.3,0.8-1.7c0.5-0.4,1.3-0.6,2.4-0.6h2.3V15c0-0.6-0.2-1.1-0.5-1.4
		c-0.4-0.3-0.9-0.5-1.6-0.5c-0.5,0-0.9,0.1-1.4,0.2c-0.5,0.2-0.8,0.4-1.1,0.6l-0.6-1.1c0.4-0.3,0.9-0.6,1.5-0.8
		c0.6-0.2,1.2-0.3,1.8-0.3C85.6,11.8,86.5,12.1,87.1,12.6z M85.6,18.5c0.4-0.2,0.7-0.6,0.9-1v-1.1h-2.2c-1.2,0-1.8,0.4-1.8,1.2
		c0,0.4,0.2,0.7,0.5,0.9c0.3,0.2,0.7,0.3,1.3,0.3S85.2,18.7,85.6,18.5z"/>
	<path class="st5" d="M91,19.7c-0.6-0.2-1.1-0.4-1.4-0.7l0.6-1.1c0.3,0.3,0.8,0.5,1.3,0.6c0.5,0.1,1,0.2,1.5,0.2
		c1.3,0,1.9-0.4,1.9-1.1c0-0.2-0.1-0.4-0.3-0.6c-0.2-0.1-0.4-0.2-0.6-0.3s-0.6-0.1-1.1-0.2c-0.6-0.1-1.2-0.2-1.6-0.3
		c-0.4-0.1-0.8-0.4-1-0.7s-0.4-0.7-0.4-1.3c0-0.7,0.3-1.3,0.9-1.7c0.6-0.4,1.4-0.7,2.4-0.7c0.5,0,1.1,0.1,1.6,0.2s1,0.3,1.3,0.5
		l-0.6,1.1c-0.7-0.4-1.4-0.6-2.3-0.6c-0.6,0-1.1,0.1-1.4,0.3s-0.5,0.5-0.5,0.8c0,0.3,0.1,0.5,0.3,0.6c0.2,0.2,0.4,0.3,0.7,0.3
		c0.3,0.1,0.6,0.1,1.1,0.2c0.6,0.1,1.2,0.2,1.6,0.4c0.4,0.1,0.7,0.3,1,0.6c0.3,0.3,0.4,0.7,0.4,1.3c0,0.7-0.3,1.3-0.9,1.7
		C94.8,19.7,94,20,92.9,20C92.2,20,91.6,19.9,91,19.7z"/>
</g>
<g>
	<g>
		<path id="SVGID_1_" class="st6" d="M17.1,8.8c0-4.3-3.5-7.7-7.7-7.7c-4.3,0-7.7,3.5-7.7,7.7c0,1.9,0.9,3.5,1.9,5
			c1,1.6,1.8,3.2,2.5,4.9c0.5,1,1.7,1.4,2.8,1.5s2.4-0.1,3.3-0.8c1.4-1.2,1.4-3.4,2.4-4.8C15.8,12.8,17.1,11,17.1,8.8z"/>
	</g>
</g>
<path class="st7" d="M11.5,24.5c0.1-0.1,0.2-0.2,0.3-0.3c0.1-0.2,0.1-0.4,0-0.5c0-0.2,0-0.2,0.1-0.3c0.1-0.1,0.3-0.2,0.3-0.4
	c0-0.1,0-0.3,0-0.4v-0.1c0-0.1,0.2-0.2,0.2-0.3c0.2-0.2,0.4-0.4,0.4-0.7c0-0.2,0-0.4-0.1-0.5c-0.2-0.2-0.4-0.1-0.6,0
	c-0.1,0-0.1,0.1-0.2,0.1c-1.2,0.6-2.7,0.6-3.9,0.3c-0.3-0.1-0.7-0.2-1-0.3c-0.2-0.1-0.6-0.2-0.8,0.1c-0.1,0.3-0.1,0.6,0,0.8
	c0.2-0.1,0.3,0,0.4,0.1s0.2,0.2,0.1,0.3c0,0.1,0,0.2,0,0.4c0,0.2,0,0.3,0.2,0.5c0.1,0.1,0.3,0.2,0.4,0.4c0.1,0.1,0.1,0.3,0.1,0.4
	c0.1,0.2,0.3,0.5,0.5,0.6c0.2,0.2,0.5,0.1,0.7,0.4c0.3,0.3,0.6,0.5,1,0.5c0.5,0,0.7-0.4,1.1-0.7c0.1-0.1,0.3-0.1,0.5-0.2
	C11.4,24.6,11.4,24.6,11.5,24.5z"/>
</svg>
